<svg width="40" height="40" viewBox="0 0 40 40" fill="none" xmlns="http://www.w3.org/2000/svg">
<rect width="40" height="40" rx="20" fill="#E7F7EF"/>
<path d="M20 11.875C18.393 11.875 16.8221 12.3515 15.486 13.2443C14.1498 14.1371 13.1084 15.406 12.4935 16.8907C11.8785 18.3753 11.7176 20.009 12.0311 21.5851C12.3446 23.1612 13.1185 24.6089 14.2548 25.7452C15.3911 26.8815 16.8388 27.6554 18.4149 27.9689C19.991 28.2824 21.6247 28.1215 23.1093 27.5065C24.594 26.8916 25.8629 25.8502 26.7557 24.514C27.6485 23.1779 28.125 21.607 28.125 20C28.1225 17.8459 27.2657 15.7807 25.7425 14.2575C24.2193 12.7343 22.1541 11.8775 20 11.875V11.875ZM23.8696 18.5773L19.2859 22.9523C19.1693 23.0632 19.0146 23.125 18.8538 23.125C18.6929 23.125 18.5382 23.0632 18.4216 22.9523L16.1304 20.7648C16.0107 20.6501 15.9414 20.4926 15.9377 20.3269C15.934 20.1612 15.9963 20.0008 16.1108 19.8809C16.2253 19.7611 16.3827 19.6916 16.5484 19.6877C16.7142 19.6838 16.8746 19.7459 16.9946 19.8602L18.8538 21.6357L23.0054 17.6727C23.1254 17.5584 23.2859 17.4963 23.4516 17.5002C23.6173 17.5041 23.7747 17.5736 23.8892 17.6934C24.0037 17.8133 24.066 17.9737 24.0623 18.1394C24.0586 18.3051 23.9893 18.4626 23.8696 18.5773V18.5773Z" fill="#0FAF62"/>
</svg>
